<?xml version="1.0" encoding="UTF-8"?>
<!DOCTYPE svg PUBLIC "-//W3C//DTD SVG 1.1//EN" "http://www.w3.org/Graphics/SVG/1.1/DTD/svg11.dtd">
<svg xmlns="http://www.w3.org/2000/svg" version="1.1" width="882px" height="505px" style="shape-rendering:geometricPrecision; text-rendering:geometricPrecision; image-rendering:optimizeQuality; fill-rule:evenodd; clip-rule:evenodd" xmlns:xlink="http://www.w3.org/1999/xlink">
<g><path style="opacity:1" fill="#fefffe" d="M -0.5,-0.5 C 293.5,-0.5 587.5,-0.5 881.5,-0.5C 881.5,167.833 881.5,336.167 881.5,504.5C 587.5,504.5 293.5,504.5 -0.5,504.5C -0.5,336.167 -0.5,167.833 -0.5,-0.5 Z"/></g>
<g><path style="opacity:1" fill="#0a69b6" d="M 415.5,10.5 C 504.092,7.37651 589.759,21.5432 672.5,53C 713.223,69.5126 750.223,91.8459 783.5,120C 810.95,144.406 830.783,173.906 843,208.5C 855.175,252.278 849.508,293.612 826,332.5C 804.455,365.045 777.289,391.878 744.5,413C 674.976,454.952 599.643,479.952 518.5,488C 429.437,498.186 341.771,491.186 255.5,467C 196.301,450.573 143.301,422.906 96.5,384C 70.8074,361.764 51.6407,334.93 39,303.5C 23.8482,260.044 27.1815,218.044 49,177.5C 71.8333,140 102,109.833 139.5,87C 195.259,53.8025 255.259,31.8025 319.5,21C 351.443,15.5737 383.443,12.0737 415.5,10.5 Z"/></g>
<g><path style="opacity:1" fill="#fdfefe" d="M 414.5,15.5 C 501.215,12.4529 585.215,25.9529 666.5,56C 708.604,72.1715 746.604,94.8381 780.5,124C 808.038,148.201 827.538,177.701 839,212.5C 849.715,253.877 844.048,292.877 822,329.5C 799.696,363.472 771.196,390.972 736.5,412C 681.703,444.714 622.703,466.381 559.5,477C 458.44,494.632 358.44,489.965 259.5,463C 199.857,446.85 146.524,419.183 99.5,380C 72.3902,356.27 52.8902,327.437 41,293.5C 29.704,254.233 33.704,216.566 53,180.5C 71.9375,148.56 96.7708,122.06 127.5,101C 180.106,66.3786 237.44,42.7119 299.5,30C 337.601,22.1125 375.935,17.2792 414.5,15.5 Z"/></g>
<g><path style="opacity:1" fill="#086ab5" d="M 197.5,112.5 C 196.504,126.657 196.171,140.99 196.5,155.5C 191.167,155.5 185.833,155.5 180.5,155.5C 180.667,143.829 180.5,132.162 180,120.5C 179.824,117.118 179.324,113.785 178.5,110.5C 177.893,110.624 177.56,110.957 177.5,111.5C 174.838,112.499 172.172,113.499 169.5,114.5C 168.608,109.562 168.274,104.562 168.5,99.5C 180.327,93.9963 191.66,87.6629 202.5,80.5C 203.833,85.8333 203.833,91.1667 202.5,96.5C 201.167,97.5 199.833,98.5 198.5,99.5C 197.508,103.783 197.174,108.116 197.5,112.5 Z"/></g>
<g><path style="opacity:1" fill="#91bcdd" d="M 451.5,82.5 C 456.348,81.1863 461.348,81.1863 466.5,82.5C 466.376,83.1067 466.043,83.44 465.5,83.5C 461.03,82.5139 456.363,82.1805 451.5,82.5 Z"/></g>
<g><path style="opacity:1" fill="#0c6ab5" d="M 451.5,82.5 C 456.363,82.1805 461.03,82.5139 465.5,83.5C 465.007,85.8056 464.674,88.139 464.5,90.5C 467.5,90.5 470.5,90.5 473.5,90.5C 483.987,91.4944 494.654,91.8278 505.5,91.5C 505.5,95.1667 505.5,98.8333 505.5,102.5C 498.142,102.418 490.809,102.752 483.5,103.5C 483.5,107.833 483.5,112.167 483.5,116.5C 491.167,116.5 498.833,116.5 506.5,116.5C 506.5,119.167 506.5,121.833 506.5,124.5C 506.5,125.5 506.5,126.5 506.5,127.5C 500.335,127.034 494.335,127.701 488.5,129.5C 488.624,130.107 488.957,130.44 489.5,130.5C 493.879,135.206 498.879,139.206 504.5,142.5C 506.223,145.94 506.89,149.606 506.5,153.5C 500.516,153.561 495.183,151.728 490.5,148C 484.967,142.802 479.8,137.302 475,131.5C 468.302,143.706 458.135,151.039 444.5,153.5C 444.184,150.022 444.684,146.688 446,143.5C 452.828,140.345 458.328,135.678 462.5,129.5C 459.914,128.52 457.247,128.187 454.5,128.5C 451.713,127.523 448.713,127.19 445.5,127.5C 445.5,123.833 445.5,120.167 445.5,116.5C 452.833,116.5 460.167,116.5 467.5,116.5C 468.229,111.87 468.563,107.203 468.5,102.5C 464.511,102.116 460.845,102.783 457.5,104.5C 456.972,105.721 456.305,106.887 455.5,108C 451.129,108.828 446.795,108.661 442.5,107.5C 446.881,99.6305 449.881,91.2972 451.5,82.5 Z"/></g>
<g><path style="opacity:1" fill="#92bdde" d="M 619.5,83.5 C 624.975,82.5111 630.642,82.1778 636.5,82.5C 636.737,83.791 636.404,84.791 635.5,85.5C 630.604,83.5539 625.271,82.8872 619.5,83.5 Z"/></g>
<g><path style="opacity:1" fill="#106bb6" d="M 597.5,107.5 C 597.5,108.5 597.5,109.5 597.5,110.5C 592.193,111.026 587.193,110.36 582.5,108.5C 581.516,99.9142 579.516,91.5808 576.5,83.5C 585.923,81.1122 591.756,84.4456 594,93.5C 595.893,98.0068 597.059,102.673 597.5,107.5 Z"/></g>
<g><path style="opacity:1" fill="#086ab6" d="M 619.5,83.5 C 625.271,82.8872 630.604,83.5539 635.5,85.5C 634.727,89.1402 634.06,92.8068 633.5,96.5C 634.833,96.5 636.167,96.5 637.5,96.5C 641.634,97.4849 645.968,97.8182 650.5,97.5C 650.5,94.5 650.5,91.5 650.5,88.5C 650.5,85.1667 652.167,83.5 655.5,83.5C 659.5,83.5 663.5,83.5 667.5,83.5C 667.5,88.1667 667.5,92.8333 667.5,97.5C 677.833,97.5 688.167,97.5 698.5,97.5C 698.5,101.833 698.5,106.167 698.5,110.5C 695.5,110.5 692.5,110.5 689.5,110.5C 682.167,110.5 674.833,110.5 667.5,110.5C 667.5,117.167 667.5,123.833 667.5,130.5C 669.833,130.5 672.167,130.5 674.5,130.5C 681.648,131.492 688.981,131.825 696.5,131.5C 696.5,134.833 696.5,138.167 696.5,141.5C 670.5,141.5 644.5,141.5 618.5,141.5C 618.5,138.167 618.5,134.833 618.5,131.5C 626.684,131.826 634.684,131.492 642.5,130.5C 645.167,130.5 647.833,130.5 650.5,130.5C 650.823,123.978 650.49,117.645 649.5,111.5C 641.804,111.169 634.138,111.503 626.5,112.5C 624.58,115.339 622.913,118.339 621.5,121.5C 616.544,122.494 611.544,122.827 606.5,122.5C 612.213,110.028 616.546,97.0277 619.5,83.5 Z"/></g>
<g><path style="opacity:1" fill="#126bb6" d="M 233.5,84.5 C 238.167,84.5 242.833,84.5 247.5,84.5C 247.175,92.0191 247.508,99.3524 248.5,106.5C 261.579,103.29 274.246,98.9563 286.5,93.5C 286.803,98.43 286.469,103.263 285.5,108C 273.47,114.398 260.803,118.898 247.5,121.5C 247.035,128.131 248.368,134.298 251.5,140C 253.81,140.497 256.143,140.663 258.5,140.5C 267.652,141.494 276.985,141.827 286.5,141.5C 286.5,145.5 286.5,149.5 286.5,153.5C 276.5,153.5 266.5,153.5 256.5,153.5C 249.609,154.099 242.942,153.265 236.5,151C 231.837,146.54 229.837,141.04 230.5,134.5C 230.813,131.753 230.48,129.086 229.5,126.5C 228.893,126.624 228.56,126.957 228.5,127.5C 222.855,128.328 217.188,128.994 211.5,129.5C 210.167,129.5 208.833,129.5 207.5,129.5C 206.985,124.52 207.652,119.854 209.5,115.5C 216.194,114.663 222.86,113.663 229.5,112.5C 229.124,103.765 229.624,95.0979 231,86.5C 231.708,85.6195 232.542,84.9528 233.5,84.5 Z"/></g>
<g><path style="opacity:1" fill="#86b5da" d="M 233.5,84.5 C 238.305,83.5128 243.305,83.1795 248.5,83.5C 248.5,91.1667 248.5,98.8333 248.5,106.5C 247.508,99.3524 247.175,92.0191 247.5,84.5C 242.833,84.5 238.167,84.5 233.5,84.5 Z"/></g>
<g><path style="opacity:1" fill="#0d6bb6" d="M 358.5,84.5 C 363.167,84.5 367.833,84.5 372.5,84.5C 372.173,94.015 372.506,103.348 373.5,112.5C 389.992,113.497 406.658,113.83 423.5,113.5C 423.5,115.167 423.5,116.833 423.5,118.5C 423.5,121.167 423.5,123.833 423.5,126.5C 410.323,126.171 397.323,126.505 384.5,127.5C 381.167,127.5 377.833,127.5 374.5,127.5C 382.653,157.135 398.82,181.468 423,200.5C 423.829,205.533 423.662,210.533 422.5,215.5C 396.288,200.621 376.621,179.621 363.5,152.5C 350.826,179.842 331.493,201.175 305.5,216.5C 304.337,211.198 304.171,205.864 305,200.5C 328.843,181.506 344.677,157.172 352.5,127.5C 345.167,127.5 337.833,127.5 330.5,127.5C 322.016,126.507 313.349,126.174 304.5,126.5C 304.5,123.5 304.5,120.5 304.5,117.5C 304.5,116.5 304.5,115.5 304.5,114.5C 321.167,114.5 337.833,114.5 354.5,114.5C 354.5,105.5 354.5,96.5 354.5,87.5C 355.262,85.7376 356.596,84.7376 358.5,84.5 Z"/></g>
<g><path style="opacity:1" fill="#88b6db" d="M 358.5,84.5 C 363.305,83.5128 368.305,83.1795 373.5,83.5C 373.5,93.1667 373.5,102.833 373.5,112.5C 372.506,103.348 372.173,94.015 372.5,84.5C 367.833,84.5 363.167,84.5 358.5,84.5 Z"/></g>
<g><path style="opacity:1" fill="#5e9ece" d="M 513.5,89.5 C 516.962,88.5184 520.629,88.185 524.5,88.5C 536.167,88.5 547.833,88.5 559.5,88.5C 559.5,96.1667 559.5,103.833 559.5,111.5C 558.508,104.352 558.175,97.0191 558.5,89.5C 543.5,89.5 528.5,89.5 513.5,89.5 Z"/></g>
<g><path style="opacity:1" fill="#a1c5e2" d="M 524.5,88.5 C 536.322,87.5049 548.322,87.1716 560.5,87.5C 560.83,103.009 560.496,118.342 559.5,133.5C 559.5,126.167 559.5,118.833 559.5,111.5C 559.5,103.833 559.5,96.1667 559.5,88.5C 547.833,88.5 536.167,88.5 524.5,88.5 Z"/></g>
<g><path style="opacity:1" fill="#0569b5" d="M 513.5,89.5 C 528.5,89.5 543.5,89.5 558.5,89.5C 558.175,97.0191 558.508,104.352 559.5,111.5C 559.5,118.833 559.5,126.167 559.5,133.5C 559.249,148.753 551.583,155.42 536.5,153.5C 528.167,153.5 519.833,153.5 511.5,153.5C 511.5,136.167 511.5,118.833 511.5,101.5C 511.335,97.8183 511.501,94.1516 512,90.5C 512.383,89.944 512.883,89.6107 513.5,89.5 Z"/></g>
<g><path style="opacity:1" fill="#85b5da" d="M 650.5,88.5 C 650.5,91.5 650.5,94.5 650.5,97.5C 645.968,97.8182 641.634,97.4849 637.5,96.5C 641.5,96.5 645.5,96.5 649.5,96.5C 649.194,93.6146 649.527,90.9479 650.5,88.5 Z"/></g>
<g><path style="opacity:1" fill="#87b7db" d="M 655.5,83.5 C 659.634,82.5151 663.968,82.1818 668.5,82.5C 668.5,87.1667 668.5,91.8333 668.5,96.5C 678.681,96.1726 688.681,96.506 698.5,97.5C 688.167,97.5 677.833,97.5 667.5,97.5C 667.5,92.8333 667.5,88.1667 667.5,83.5C 663.5,83.5 659.5,83.5 655.5,83.5 Z"/></g>
<g><path style="opacity:1" fill="#90bcdd" d="M 473.5,90.5 C 484.5,90.5 495.5,90.5 506.5,90.5C 507.586,95.0562 507.586,99.5562 506.5,104C 499.174,104.5 491.841,104.666 484.5,104.5C 484.5,108.167 484.5,111.833 484.5,115.5C 492.167,115.5 499.833,115.5 507.5,115.5C 507.81,118.713 507.477,121.713 506.5,124.5C 506.5,121.833 506.5,119.167 506.5,116.5C 498.833,116.5 491.167,116.5 483.5,116.5C 483.5,112.167 483.5,107.833 483.5,103.5C 490.809,102.752 498.142,102.418 505.5,102.5C 505.5,98.8333 505.5,95.1667 505.5,91.5C 494.654,91.8278 483.987,91.4944 473.5,90.5 Z"/></g>
<g><path style="opacity:1" fill="#66a2d1" d="M 545.5,133.5 C 545.5,127.5 545.5,121.5 545.5,115.5C 545.5,111.167 545.5,106.833 545.5,102.5C 538.5,102.5 531.5,102.5 524.5,102.5C 524.5,115.167 524.5,127.833 524.5,140.5C 528.833,140.5 533.167,140.5 537.5,140.5C 533.03,141.486 528.363,141.819 523.5,141.5C 523.5,128.167 523.5,114.833 523.5,101.5C 531.167,101.5 538.833,101.5 546.5,101.5C 546.828,112.346 546.494,123.013 545.5,133.5 Z"/></g>
<g><path style="opacity:1" fill="#a5c9e4" d="M 545.5,115.5 C 544.517,111.702 544.183,107.702 544.5,103.5C 538.167,103.5 531.833,103.5 525.5,103.5C 525.5,115.5 525.5,127.5 525.5,139.5C 531.167,139.5 536.833,139.5 542.5,139.5C 541.081,140.451 539.415,140.784 537.5,140.5C 533.167,140.5 528.833,140.5 524.5,140.5C 524.5,127.833 524.5,115.167 524.5,102.5C 531.5,102.5 538.5,102.5 545.5,102.5C 545.5,106.833 545.5,111.167 545.5,115.5 Z"/></g>
<g><path style="opacity:1" fill="#fcfdfd" d="M 545.5,115.5 C 545.5,121.5 545.5,127.5 545.5,133.5C 545.539,136.089 544.539,138.089 542.5,139.5C 536.833,139.5 531.167,139.5 525.5,139.5C 525.5,127.5 525.5,115.5 525.5,103.5C 531.833,103.5 538.167,103.5 544.5,103.5C 544.183,107.702 544.517,111.702 545.5,115.5 Z"/></g>
<g><path style="opacity:1" fill="#85b4da" d="M 597.5,107.5 C 598.434,108.568 598.768,109.901 598.5,111.5C 593.167,111.5 587.833,111.5 582.5,111.5C 582.5,110.5 582.5,109.5 582.5,108.5C 587.193,110.36 592.193,111.026 597.5,110.5C 597.5,109.5 597.5,108.5 597.5,107.5 Z"/></g>
<g><path style="opacity:1" fill="#90bbde" d="M 168.5,99.5 C 168.274,104.562 168.608,109.562 169.5,114.5C 169.44,115.043 169.107,115.376 168.5,115.5C 167.185,110.014 167.185,104.68 168.5,99.5 Z"/></g>
<g><path style="opacity:1" fill="#91bbdd" d="M 354.5,87.5 C 354.5,96.5 354.5,105.5 354.5,114.5C 337.833,114.5 321.167,114.5 304.5,114.5C 307.977,113.677 311.644,113.177 315.5,113C 327.829,112.5 340.162,112.333 352.5,112.5C 352.334,106.158 352.5,99.8246 353,93.5C 353.191,91.2922 353.691,89.2922 354.5,87.5 Z"/></g>
<g><path style="opacity:1" fill="#8ebadc" d="M 454.5,128.5 C 451.167,128.5 447.833,128.5 444.5,128.5C 444.5,124.167 444.5,119.833 444.5,115.5C 451.833,115.5 459.167,115.5 466.5,115.5C 466.5,111.833 466.5,108.167 466.5,104.5C 463.5,104.5 460.5,104.5 457.5,104.5C 460.845,102.783 464.511,102.116 468.5,102.5C 468.563,107.203 468.229,111.87 467.5,116.5C 460.167,116.5 452.833,116.5 445.5,116.5C 445.5,120.167 445.5,123.833 445.5,127.5C 448.713,127.19 451.713,127.523 454.5,128.5 Z"/></g>
<g><path style="opacity:1" fill="#8db8dc" d="M 209.5,115.5 C 207.652,119.854 206.985,124.52 207.5,129.5C 208.833,129.5 210.167,129.5 211.5,129.5C 210.081,130.451 208.415,130.784 206.5,130.5C 206.5,125.5 206.5,120.5 206.5,115.5C 207.5,115.5 208.5,115.5 209.5,115.5 Z"/></g>
<g><path style="opacity:1" fill="#8bb9db" d="M 511.5,101.5 C 511.5,118.833 511.5,136.167 511.5,153.5C 519.833,153.5 528.167,153.5 536.5,153.5C 528.016,154.493 519.349,154.826 510.5,154.5C 510.17,136.659 510.503,118.992 511.5,101.5 Z"/></g>
<g><path style="opacity:1" fill="#8fbbdd" d="M 304.5,117.5 C 304.5,120.5 304.5,123.5 304.5,126.5C 313.349,126.174 322.016,126.507 330.5,127.5C 321.5,127.5 312.5,127.5 303.5,127.5C 303.187,123.958 303.521,120.625 304.5,117.5 Z"/></g>
<g><path style="opacity:1" fill="#88b6db" d="M 423.5,118.5 C 424.477,121.287 424.81,124.287 424.5,127.5C 411.167,127.5 397.833,127.5 384.5,127.5C 397.323,126.505 410.323,126.171 423.5,126.5C 423.5,123.833 423.5,121.167 423.5,118.5 Z"/></g>
<g><path style="opacity:1" fill="#7aadd6" d="M 228.5,127.5 C 228.56,126.957 228.893,126.624 229.5,126.5C 230.48,129.086 230.813,131.753 230.5,134.5C 229.833,132.167 229.167,129.833 228.5,127.5 Z"/></g>
<g><path style="opacity:1" fill="#9ac2e0" d="M 506.5,127.5 C 500.804,128.303 495.137,129.303 489.5,130.5C 488.957,130.44 488.624,130.107 488.5,129.5C 494.335,127.701 500.335,127.034 506.5,127.5 Z"/></g>
<g><path style="opacity:1" fill="#0c6ab5" d="M 588.5,131.5 C 594.59,130.137 599.09,132.137 602,137.5C 602.822,155.161 603.489,172.827 604,190.5C 606.282,197.4 611.115,200.4 618.5,199.5C 635.325,200.497 652.325,200.83 669.5,200.5C 678.652,201.494 687.985,201.827 697.5,201.5C 697.5,205.5 697.5,209.5 697.5,213.5C 669.833,213.5 642.167,213.5 614.5,213.5C 608.913,212.288 604.079,209.621 600,205.5C 594.901,210.799 588.735,214.133 581.5,215.5C 580.5,215.5 579.5,215.5 578.5,215.5C 578.5,211.833 578.5,208.167 578.5,204.5C 583.186,203.313 586.019,200.313 587,195.5C 587.5,181.171 587.667,166.837 587.5,152.5C 587.5,149.833 587.5,147.167 587.5,144.5C 584.545,143.841 581.545,143.508 578.5,143.5C 578.5,139.5 578.5,135.5 578.5,131.5C 581.833,131.5 585.167,131.5 588.5,131.5 Z"/></g>
<g><path style="opacity:1" fill="#8ebadd" d="M 177.5,111.5 C 177.56,110.957 177.893,110.624 178.5,110.5C 179.324,113.785 179.824,117.118 180,120.5C 180.5,132.162 180.667,143.829 180.5,155.5C 185.833,155.5 191.167,155.5 196.5,155.5C 196.171,140.99 196.504,126.657 197.5,112.5C 197.5,127.167 197.5,141.833 197.5,156.5C 191.5,156.5 185.5,156.5 179.5,156.5C 179.673,141.307 179.006,126.307 177.5,111.5 Z"/></g>
<g><path style="opacity:1" fill="#7eb0d8" d="M 258.5,140.5 C 268.167,140.5 277.833,140.5 287.5,140.5C 287.5,145.167 287.5,149.833 287.5,154.5C 276.986,154.828 266.653,154.494 256.5,153.5C 266.5,153.5 276.5,153.5 286.5,153.5C 286.5,149.5 286.5,145.5 286.5,141.5C 276.985,141.827 267.652,141.494 258.5,140.5 Z"/></g>
<g><path style="opacity:1" fill="#7fadd6" d="M 689.5,110.5 C 682.687,111.491 675.687,111.825 668.5,111.5C 668.5,117.5 668.5,123.5 668.5,129.5C 678.5,129.5 688.5,129.5 698.5,129.5C 698.5,134.167 698.5,138.833 698.5,143.5C 671.167,143.5 643.833,143.5 616.5,143.5C 616.5,138.833 616.5,134.167 616.5,129.5C 627.5,129.5 638.5,129.5 649.5,129.5C 649.5,123.5 649.5,117.5 649.5,111.5C 650.49,117.645 650.823,123.978 650.5,130.5C 647.833,130.5 645.167,130.5 642.5,130.5C 634.167,130.5 625.833,130.5 617.5,130.5C 617.5,134.5 617.5,138.5 617.5,142.5C 644.167,142.5 670.833,142.5 697.5,142.5C 697.5,138.5 697.5,134.5 697.5,130.5C 689.833,130.5 682.167,130.5 674.5,130.5C 672.167,130.5 669.833,130.5 667.5,130.5C 667.5,123.833 667.5,117.167 667.5,110.5C 674.833,110.5 682.167,110.5 689.5,110.5 Z"/></g>
<g><path style="opacity:1" fill="#3e87c3" d="M 642.5,130.5 C 634.684,131.492 626.684,131.826 618.5,131.5C 618.5,134.833 618.5,138.167 618.5,141.5C 644.5,141.5 670.5,141.5 696.5,141.5C 696.5,138.167 696.5,134.833 696.5,131.5C 688.981,131.825 681.648,131.492 674.5,130.5C 682.167,130.5 689.833,130.5 697.5,130.5C 697.5,134.5 697.5,138.5 697.5,142.5C 670.833,142.5 644.167,142.5 617.5,142.5C 617.5,138.5 617.5,134.5 617.5,130.5C 625.833,130.5 634.167,130.5 642.5,130.5 Z"/></g>
<g><path style="opacity:1" fill="#a3c7e3" d="M 588.5,131.5 C 585.167,131.5 581.833,131.5 578.5,131.5C 578.5,135.5 578.5,139.5 578.5,143.5C 581.545,143.508 584.545,143.841 587.5,144.5C 587.5,147.167 587.5,149.833 587.5,152.5C 586.532,150.393 586.198,148.059 586.5,145.5C 583.167,145.5 579.833,145.5 576.5,145.5C 576.413,140.463 576.746,135.463 577.5,130.5C 581.371,130.185 585.038,130.518 588.5,131.5 Z"/></g>
<g><path style="opacity:1" fill="#84b0d8" d="M 696.5,180.5 C 696.5,177.5 696.5,174.5 696.5,171.5C 696.5,164.833 696.5,158.167 696.5,151.5C 670.167,151.5 643.833,151.5 617.5,151.5C 617.5,161.833 617.5,172.167 617.5,182.5C 617.5,185.167 617.5,187.833 617.5,190.5C 619.735,190.205 621.735,190.539 623.5,191.5C 621.167,191.5 618.833,191.5 616.5,191.5C 616.5,177.833 616.5,164.167 616.5,150.5C 643.5,150.5 670.5,150.5 697.5,150.5C 697.827,160.681 697.494,170.681 696.5,180.5 Z"/></g>
<g><path style="opacity:1" fill="#4189c6" d="M 696.5,171.5 C 695.51,165.355 695.177,159.022 695.5,152.5C 669.833,152.5 644.167,152.5 618.5,152.5C 618.827,162.681 618.494,172.681 617.5,182.5C 617.5,172.167 617.5,161.833 617.5,151.5C 643.833,151.5 670.167,151.5 696.5,151.5C 696.5,158.167 696.5,164.833 696.5,171.5 Z"/></g>
<g><path style="opacity:1" fill="#0a6ab6" d="M 696.5,171.5 C 696.5,174.5 696.5,177.5 696.5,180.5C 696.181,186.309 693.181,189.809 687.5,191C 666.169,191.5 644.836,191.667 623.5,191.5C 621.735,190.539 619.735,190.205 617.5,190.5C 617.5,187.833 617.5,185.167 617.5,182.5C 618.494,172.681 618.827,162.681 618.5,152.5C 644.167,152.5 669.833,152.5 695.5,152.5C 695.177,159.022 695.51,165.355 696.5,171.5 Z"/></g>
<g><path style="opacity:1" fill="#076ab6" d="M 286.5,180.5 C 269.5,180.5 252.5,180.5 235.5,180.5C 235.5,190.167 235.5,199.833 235.5,209.5C 234.309,214.771 230.976,217.104 225.5,216.5C 223.167,216.5 220.833,216.5 218.5,216.5C 218.828,204.988 218.495,193.654 217.5,182.5C 201.342,181.504 185.009,181.17 168.5,181.5C 168.5,177.167 168.5,172.833 168.5,168.5C 185.167,168.5 201.833,168.5 218.5,168.5C 218.5,163.5 218.5,158.5 218.5,153.5C 224.5,153.5 230.5,153.5 236.5,153.5C 236.5,158.5 236.5,163.5 236.5,168.5C 253.167,168.5 269.833,168.5 286.5,168.5C 286.5,172.5 286.5,176.5 286.5,180.5 Z"/></g>
<g><path style="opacity:1" fill="#88b7db" d="M 447.5,158.5 C 484.663,157.502 521.996,157.168 559.5,157.5C 559.827,167.348 559.494,177.014 558.5,186.5C 558.5,177.167 558.5,167.833 558.5,158.5C 521.5,158.5 484.5,158.5 447.5,158.5 Z"/></g>
<g><path style="opacity:1" fill="#0669b5" d="M 447.5,158.5 C 484.5,158.5 521.5,158.5 558.5,158.5C 558.5,167.833 558.5,177.167 558.5,186.5C 558.666,193.508 558.5,200.508 558,207.5C 556.5,211.667 553.667,214.5 549.5,216C 538.172,216.5 526.838,216.667 515.5,216.5C 492.5,216.5 469.5,216.5 446.5,216.5C 446.5,201.5 446.5,186.5 446.5,171.5C 446.231,167.069 446.564,162.735 447.5,158.5 Z"/></g>
<g><path style="opacity:1" fill="#79add7" d="M 680.5,171.5 C 680.5,169.167 680.5,166.833 680.5,164.5C 664.833,164.5 649.167,164.5 633.5,164.5C 633.5,169.167 633.5,173.833 633.5,178.5C 643.167,178.5 652.833,178.5 662.5,178.5C 652.681,179.494 642.681,179.827 632.5,179.5C 632.5,174.167 632.5,168.833 632.5,163.5C 648.833,163.5 665.167,163.5 681.5,163.5C 681.806,166.385 681.473,169.052 680.5,171.5 Z"/></g>
<g><path style="opacity:1" fill="#fcfcfd" d="M 680.5,171.5 C 680.556,174.561 679.222,176.728 676.5,178C 671.845,178.499 667.179,178.666 662.5,178.5C 652.833,178.5 643.167,178.5 633.5,178.5C 633.5,173.833 633.5,169.167 633.5,164.5C 649.167,164.5 664.833,164.5 680.5,164.5C 680.5,166.833 680.5,169.167 680.5,171.5 Z"/></g>
<g><path style="opacity:1" fill="#86b5da" d="M 286.5,181.5 C 286.5,181.167 286.5,180.833 286.5,180.5C 286.5,176.5 286.5,172.5 286.5,168.5C 269.833,168.5 253.167,168.5 236.5,168.5C 236.5,163.5 236.5,158.5 236.5,153.5C 230.5,153.5 224.5,153.5 218.5,153.5C 218.5,158.5 218.5,163.5 218.5,168.5C 201.833,168.5 185.167,168.5 168.5,168.5C 168.5,172.833 168.5,177.167 168.5,181.5C 185.009,181.17 201.342,181.504 217.5,182.5C 200.833,182.5 184.167,182.5 167.5,182.5C 167.5,177.5 167.5,172.5 167.5,167.5C 184.167,167.5 200.833,167.5 217.5,167.5C 217.5,162.5 217.5,157.5 217.5,152.5C 224.167,152.5 230.833,152.5 237.5,152.5C 237.5,157.5 237.5,162.5 237.5,167.5C 254.167,167.5 270.833,167.5 287.5,167.5C 287.819,172.363 287.486,177.03 286.5,181.5 Z"/></g>
<g><path style="opacity:1" fill="#3c89c4" d="M 505.5,171.5 C 491.167,171.5 476.833,171.5 462.5,171.5C 462.5,173.5 462.5,175.5 462.5,177.5C 461.532,175.393 461.198,173.059 461.5,170.5C 476.343,170.171 491.01,170.504 505.5,171.5 Z"/></g>
<g><path style="opacity:1" fill="#88b8db" d="M 505.5,171.5 C 517.833,171.5 530.167,171.5 542.5,171.5C 542.5,174.5 542.5,177.5 542.5,180.5C 515.833,180.5 489.167,180.5 462.5,180.5C 462.5,179.5 462.5,178.5 462.5,177.5C 462.5,175.5 462.5,173.5 462.5,171.5C 476.833,171.5 491.167,171.5 505.5,171.5 Z"/></g>
<g><path style="opacity:1" fill="#f9fcfc" d="M 463.5,172.5 C 489.5,172.5 515.5,172.5 541.5,172.5C 541.5,174.833 541.5,177.167 541.5,179.5C 515.5,179.5 489.5,179.5 463.5,179.5C 463.5,177.167 463.5,174.833 463.5,172.5 Z"/></g>
<g><path style="opacity:1" fill="#65a1d0" d="M 286.5,180.5 C 286.5,180.833 286.5,181.167 286.5,181.5C 270.17,181.957 253.836,182.29 237.5,182.5C 237.534,191.701 236.867,200.701 235.5,209.5C 235.5,199.833 235.5,190.167 235.5,180.5C 252.5,180.5 269.5,180.5 286.5,180.5 Z"/></g>
<g><path style="opacity:1" fill="#84b4d9" d="M 217.5,182.5 C 218.495,193.654 218.828,204.988 218.5,216.5C 220.833,216.5 223.167,216.5 225.5,216.5C 223.052,217.473 220.385,217.806 217.5,217.5C 217.5,205.833 217.5,194.167 217.5,182.5 Z"/></g>
<g><path style="opacity:1" fill="#78add7" d="M 541.5,198.5 C 541.5,197.167 541.5,195.833 541.5,194.5C 515.167,194.5 488.833,194.5 462.5,194.5C 462.5,197.167 462.5,199.833 462.5,202.5C 478.5,202.5 494.5,202.5 510.5,202.5C 494.342,203.496 478.009,203.83 461.5,203.5C 461.5,200.167 461.5,196.833 461.5,193.5C 488.5,193.5 515.5,193.5 542.5,193.5C 542.784,195.415 542.451,197.081 541.5,198.5 Z"/></g>
<g><path style="opacity:1" fill="#fcfcfd" d="M 541.5,198.5 C 541.489,200.017 540.823,201.184 539.5,202C 529.839,202.5 520.172,202.666 510.5,202.5C 494.5,202.5 478.5,202.5 462.5,202.5C 462.5,199.833 462.5,197.167 462.5,194.5C 488.833,194.5 515.167,194.5 541.5,194.5C 541.5,195.833 541.5,197.167 541.5,198.5 Z"/></g>
<g><path style="opacity:1" fill="#a4c7e3" d="M 618.5,199.5 C 645.5,199.5 672.5,199.5 699.5,199.5C 699.5,204.833 699.5,210.167 699.5,215.5C 680.992,215.83 662.659,215.497 644.5,214.5C 662.5,214.5 680.5,214.5 698.5,214.5C 698.5,209.833 698.5,205.167 698.5,200.5C 688.833,200.5 679.167,200.5 669.5,200.5C 652.325,200.83 635.325,200.497 618.5,199.5 Z"/></g>
<g><path style="opacity:1" fill="#93bcdd" d="M 578.5,204.5 C 578.5,208.167 578.5,211.833 578.5,215.5C 579.5,215.5 580.5,215.5 581.5,215.5C 580.249,217.22 578.749,217.553 577,216.5C 576.348,212.244 576.848,208.244 578.5,204.5 Z"/></g>
<g><path style="opacity:1" fill="#75abd5" d="M 669.5,200.5 C 679.167,200.5 688.833,200.5 698.5,200.5C 698.5,205.167 698.5,209.833 698.5,214.5C 680.5,214.5 662.5,214.5 644.5,214.5C 634.319,214.827 624.319,214.494 614.5,213.5C 642.167,213.5 669.833,213.5 697.5,213.5C 697.5,209.5 697.5,205.5 697.5,201.5C 687.985,201.827 678.652,201.494 669.5,200.5 Z"/></g>
<g><path style="opacity:1" fill="#8dbadc" d="M 446.5,171.5 C 446.5,186.5 446.5,201.5 446.5,216.5C 469.5,216.5 492.5,216.5 515.5,216.5C 492.339,217.498 469.006,217.831 445.5,217.5C 445.17,201.991 445.504,186.658 446.5,171.5 Z"/></g>
<g><path style="opacity:1" fill="#0669b5" d="M 200.5,286.5 C 199.501,324.33 199.168,362.33 199.5,400.5C 197.833,400.5 196.167,400.5 194.5,400.5C 184.976,400.631 176.143,398.298 168,393.5C 167.333,342.5 167.333,291.5 168,240.5C 170.452,237.179 173.618,234.679 177.5,233C 202.739,232.052 227.739,234.052 252.5,239C 260.612,241.537 268.612,244.371 276.5,247.5C 270.131,250.701 264.464,254.868 259.5,260C 248.836,259.049 238.169,257.716 227.5,256C 218.506,255.5 209.506,255.334 200.5,255.5C 200.5,265.833 200.5,276.167 200.5,286.5 Z"/></g>
<g><path style="opacity:1" fill="#11a5a1" d="M 362.5,400.5 C 361.167,400.5 359.833,400.5 358.5,400.5C 358.832,367.329 358.498,334.329 357.5,301.5C 357.5,286.167 357.5,270.833 357.5,255.5C 333.53,254.079 310.197,257.246 287.5,265C 278.118,268.387 270.451,274.054 264.5,282C 268.473,283.028 272.473,283.861 276.5,284.5C 276.714,286.144 276.38,287.644 275.5,289C 270.898,290.122 266.232,290.622 261.5,290.5C 261.5,293.5 261.5,296.5 261.5,299.5C 266.215,299.506 270.882,300.006 275.5,301C 276.38,302.356 276.714,303.856 276.5,305.5C 272.771,306.013 269.104,306.846 265.5,308C 269.309,313.31 273.309,318.476 277.5,323.5C 275.451,326.55 272.784,328.883 269.5,330.5C 252.964,317.43 245.797,300.43 248,279.5C 252.973,267.525 261.139,258.358 272.5,252C 308.36,233.968 346.027,228.635 385.5,236C 387,237.5 388.5,239 390,240.5C 391.86,291.492 391.86,342.492 390,393.5C 388.048,395.894 385.548,397.394 382.5,398C 375.916,399.551 369.249,400.384 362.5,400.5 Z"/></g>
<g><path style="opacity:1" fill="#bad6e9" d="M 696.5,233.5 C 697.209,232.596 698.209,232.263 699.5,232.5C 699.832,264.671 699.498,296.671 698.5,328.5C 698.5,318.833 698.5,309.167 698.5,299.5C 699.156,277.141 698.489,255.141 696.5,233.5 Z"/></g>
<g><path style="opacity:1" fill="#086bb6" d="M 596.5,348.5 C 597.488,343.36 597.821,338.026 597.5,332.5C 586.5,332.5 575.5,332.5 564.5,332.5C 557.176,333.763 553.009,330.763 552,323.5C 551.096,317.865 550.596,312.198 550.5,306.5C 577.146,304.509 604.146,303.842 631.5,304.5C 631.5,321.167 631.5,337.833 631.5,354.5C 631.5,363.167 631.5,371.833 631.5,380.5C 591.226,396.101 549.559,401.934 506.5,398C 484.015,396.396 463.682,389.063 445.5,376C 428.257,360.79 420.257,341.624 421.5,318.5C 420.057,289.881 431.391,268.048 455.5,253C 471.398,244.145 488.398,238.478 506.5,236C 541.048,232.701 575.048,235.701 608.5,245C 615.661,246.914 622.328,249.914 628.5,254C 621.831,259.835 614.165,263.835 605.5,266C 588.265,267.526 571.265,266.193 554.5,262C 527.3,258.615 501.633,263.281 477.5,276C 454.971,291.238 448.471,311.738 458,337.5C 472.995,358.42 493.495,369.587 519.5,371C 541.483,372.937 563.15,371.271 584.5,366C 588.207,364.598 591.874,363.098 595.5,361.5C 596.492,357.217 596.826,352.884 596.5,348.5 Z"/></g>
<g><path style="opacity:1" fill="#0069b5" d="M 690.5,234.5 C 692.833,234.5 695.167,234.5 697.5,234.5C 697.169,256.34 697.503,278.006 698.5,299.5C 698.5,309.167 698.5,318.833 698.5,328.5C 698.409,350.508 697.909,372.508 697,394.5C 695.786,396.049 694.286,397.215 692.5,398C 683.17,398.944 673.836,399.777 664.5,400.5C 662.505,355.179 661.838,309.512 662.5,263.5C 662.334,255.826 662.5,248.159 663,240.5C 664.543,238.622 666.376,237.122 668.5,236C 675.829,235.372 683.163,234.872 690.5,234.5 Z"/></g>
<g><path style="opacity:1" fill="#63a2d1" d="M 690.5,234.5 C 692.265,233.539 694.265,233.205 696.5,233.5C 698.489,255.141 699.156,277.141 698.5,299.5C 697.503,278.006 697.169,256.34 697.5,234.5C 695.167,234.5 692.833,234.5 690.5,234.5 Z"/></g>
<g><path style="opacity:1" fill="#146cb7" d="M 283.5,339.5 C 279.699,343.473 276.032,347.64 272.5,352C 274.32,352.2 275.653,353.034 276.5,354.5C 276.5,355.5 276.5,356.5 276.5,357.5C 274.585,357.216 272.919,357.549 271.5,358.5C 269.027,358.088 267.694,359.088 267.5,361.5C 266.596,362.209 266.263,363.209 266.5,364.5C 267.5,364.5 268.5,364.5 269.5,364.5C 271.167,364.5 272.833,364.5 274.5,364.5C 275.968,365.779 276.635,367.446 276.5,369.5C 274.585,369.216 272.919,369.549 271.5,370.5C 269.897,370.312 268.563,370.812 267.5,372C 273.355,379.168 272.689,385.501 265.5,391C 264.5,391.667 263.5,391.667 262.5,391C 251.689,374.413 251.856,357.913 263,341.5C 273.434,331.238 282.934,320.238 291.5,308.5C 288.957,307.197 286.29,306.197 283.5,305.5C 282.548,303.955 282.215,302.288 282.5,300.5C 287.034,300.733 291.368,299.9 295.5,298C 296.252,297.329 296.586,296.496 296.5,295.5C 297.451,294.081 297.784,292.415 297.5,290.5C 295.833,290.5 294.167,290.5 292.5,290.5C 289.119,290.54 285.786,290.207 282.5,289.5C 282.215,287.712 282.548,286.045 283.5,284.5C 286.767,283.288 290.101,282.288 293.5,281.5C 290.69,276.856 287.023,273.023 282.5,270C 287.241,267.297 292.241,265.131 297.5,263.5C 301.375,264.539 304.208,266.872 306,270.5C 313.297,283.86 313.297,297.194 306,310.5C 299.025,320.633 291.525,330.3 283.5,339.5 Z"/></g>
<g><path style="opacity:1" fill="#84b3d9" d="M 292.5,290.5 C 294.167,290.5 295.833,290.5 297.5,290.5C 297.784,292.415 297.451,294.081 296.5,295.5C 296.5,294.167 296.5,292.833 296.5,291.5C 294.901,291.768 293.568,291.434 292.5,290.5 Z"/></g>
<g><path style="opacity:1" fill="#88b8dc" d="M 631.5,354.5 C 631.5,337.833 631.5,321.167 631.5,304.5C 604.146,303.842 577.146,304.509 550.5,306.5C 549.596,305.791 549.263,304.791 549.5,303.5C 577.167,303.5 604.833,303.5 632.5,303.5C 632.83,320.675 632.497,337.675 631.5,354.5 Z"/></g>
<g><path style="opacity:1" fill="#8bbadc" d="M 662.5,263.5 C 661.838,309.512 662.505,355.179 664.5,400.5C 663.791,401.404 662.791,401.737 661.5,401.5C 661.168,355.33 661.501,309.33 662.5,263.5 Z"/></g>
<g><path style="opacity:1" fill="#7aafd7" d="M 200.5,286.5 C 200.5,324.833 200.5,363.167 200.5,401.5C 198.265,401.795 196.265,401.461 194.5,400.5C 196.167,400.5 197.833,400.5 199.5,400.5C 199.168,362.33 199.501,324.33 200.5,286.5 Z"/></g>
<g><path style="opacity:1" fill="#7ecfcd" d="M 357.5,301.5 C 358.498,334.329 358.832,367.329 358.5,400.5C 359.833,400.5 361.167,400.5 362.5,400.5C 361.081,401.451 359.415,401.784 357.5,401.5C 357.5,368.167 357.5,334.833 357.5,301.5 Z"/></g>
<g><path style="opacity:1" fill="#8ebbdd" d="M 564.5,332.5 C 575.5,332.5 586.5,332.5 597.5,332.5C 597.821,338.026 597.488,343.36 596.5,348.5C 596.5,343.5 596.5,338.5 596.5,333.5C 585.654,333.828 574.987,333.494 564.5,332.5 Z"/></g>
<g><path style="opacity:1" fill="#1ea8a4" d="M 283.5,339.5 C 284.962,338.542 286.295,337.376 287.5,336C 288.167,335.333 288.833,335.333 289.5,336C 306.879,352.342 309.213,370.675 296.5,391C 292.422,391.28 289.589,389.447 288,385.5C 287.872,380.37 288.705,375.37 290.5,370.5C 288.143,370.663 285.81,370.497 283.5,370C 281.342,368.688 281.009,367.022 282.5,365C 285.478,364.304 288.478,363.804 291.5,363.5C 291.714,361.856 291.38,360.356 290.5,359C 287.487,358.498 284.487,357.998 281.5,357.5C 281.5,356.167 281.5,354.833 281.5,353.5C 283.484,353.617 285.15,352.95 286.5,351.5C 284.455,349.241 282.789,346.741 281.5,344C 282.414,342.594 283.08,341.094 283.5,339.5 Z"/></g>
<g><path style="opacity:1" fill="#7db0d8" d="M 276.5,354.5 C 277.434,355.568 277.768,356.901 277.5,358.5C 275.5,358.5 273.5,358.5 271.5,358.5C 272.919,357.549 274.585,357.216 276.5,357.5C 276.5,356.5 276.5,355.5 276.5,354.5 Z"/></g>
<g><path style="opacity:1" fill="#88b5da" d="M 267.5,361.5 C 267.782,362.778 268.449,363.778 269.5,364.5C 268.5,364.5 267.5,364.5 266.5,364.5C 266.263,363.209 266.596,362.209 267.5,361.5 Z"/></g>
<g><path style="opacity:1" fill="#8bb7db" d="M 274.5,364.5 C 275.5,364.5 276.5,364.5 277.5,364.5C 277.5,366.5 277.5,368.5 277.5,370.5C 275.5,370.5 273.5,370.5 271.5,370.5C 272.919,369.549 274.585,369.216 276.5,369.5C 276.635,367.446 275.968,365.779 274.5,364.5 Z"/></g>
</svg>
